<svg xmlns="http://www.w3.org/2000/svg" viewBox="0 0 100 100" width="100" height="100"><defs><linearGradient id="g-leadership" x1="0" y1="0" x2="1" y2="1"><stop offset="0" stop-color="#394aa3"/><stop offset="1" stop-color="#5f7be0"/></linearGradient></defs><circle cx="50" cy="50" r="50" fill="url(#g-leadership)"/><svg x="28" y="28" width="44" height="44" viewBox="0 0 576 512" preserveAspectRatio="xMidYMid meet"><path fill="#ffffff" d="M169.6 153.4l-18.7-18.7c-12.5-12.5-12.5-32.8 0-45.3L265.6-25.4c12.5-12.5 32.8-12.5 45.3 0L329.6-6.6c12.5 12.5 12.5 32.8 0 45.3L214.9 153.4c-12.5 12.5-32.8 12.5-45.3 0zM276 211.7l-31.4-31.4 112-112 119.4 119.4-112 112-31.4-31.4-232 232c-15.6 15.6-40.9 15.6-56.6 0s-15.6-40.9 0-56.6l232-232zM390.9 374.6c-12.5-12.5-12.5-32.8 0-45.3L505.6 214.6c12.5-12.5 32.8-12.5 45.3 0l18.7 18.7c12.5 12.5 12.5 32.8 0 45.3L454.9 393.4c-12.5 12.5-32.8 12.5-45.3 0l-18.7-18.7z"/></svg></svg>
