<svg xmlns="http://www.w3.org/2000/svg" viewBox="0 0 100 100" width="100" height="100"><defs><linearGradient id="g-trial" x1="0" y1="0" x2="1" y2="1"><stop offset="0" stop-color="#2f7a60"/><stop offset="1" stop-color="#49a77e"/></linearGradient></defs><circle cx="50" cy="50" r="50" fill="url(#g-trial)"/><svg x="28" y="28" width="44" height="44" viewBox="0 0 512 512" preserveAspectRatio="xMidYMid meet"><path fill="#ffffff" d="M256 0c4.6 0 9.2 1 13.4 2.9L457.8 82.8c22 9.3 38.4 31 38.3 57.2-.5 99.2-41.3 280.7-213.6 363.2-16.7 8-36.1 8-52.8 0-172.4-82.5-213.1-264-213.6-363.2-.1-26.2 16.3-47.9 38.3-57.2L242.7 2.9C246.9 1 251.4 0 256 0zm0 66.8l0 378.1c138-66.8 175.1-214.8 176-303.4l-176-74.6 0 0z"/></svg></svg>
